<svg width="18" height="22" viewBox="0 0 18 22" fill="none" xmlns="http://www.w3.org/2000/svg">
<path d="M1.03816 1.70364C1.01693 1.32151 1.32108 1 1.7038 1H15.8498C16.2326 1 16.5367 1.32151 16.5155 1.70364L15.4785 20.3703C15.4588 20.7236 15.1666 21 14.8128 21H11.5918C11.2538 21 10.9693 20.747 10.9298 20.4112L9.43895 7.73897C9.34662 6.95393 8.20707 6.95393 8.11473 7.73897L6.62384 20.4112C6.5844 20.747 6.29984 21 5.96179 21H2.74083C2.38701 21 2.09482 20.7236 2.0752 20.3703L1.03816 1.70364Z" stroke="black"/>
<path d="M1 6H2.66667C3.89397 6 4.88889 5.00508 4.88889 3.77778V1" stroke="black"/>
<path d="M15.9993 6H14.8882C13.6609 6 12.666 5.00508 12.666 3.77778V1" stroke="black"/>
</svg>
